<?xml version="1.0" encoding="utf-8"?>
<!-- Generator: Adobe Illustrator 16.0.4, SVG Export Plug-In . SVG Version: 6.00 Build 0)  -->
<!DOCTYPE svg PUBLIC "-//W3C//DTD SVG 1.1//EN" "http://www.w3.org/Graphics/SVG/1.1/DTD/svg11.dtd">
<svg version="1.1" id="Layer_1" xmlns="http://www.w3.org/2000/svg" xmlns:xlink="http://www.w3.org/1999/xlink" x="0px" y="0px"
	 width="792px" height="612px" viewBox="0 0 792 612" enable-background="new 0 0 792 612" xml:space="preserve">
<rect y="195" width="792" height="230.812"/>
<g>
	<g>
		<g>
			<g>
				<path fill="#FFFFFF" d="M489.586,297.518c-1.4,1.562-3.938,3.321-8.2,3.321c-6.541,0-11.486-4.589-11.486-11.585
					c0-6.996,5.045-11.584,11.486-11.584c4.195,0,6.736,1.758,7.973,2.961l-1.336,2.538c-0.878-1.106-3.382-2.733-6.509-2.733
					c-4.846,0-8.359,3.482-8.359,8.753s3.545,8.752,8.359,8.752c2.963,0,5.24-1.138,6.704-2.733L489.586,297.518z"/>
				<path fill="#FFFFFF" d="M499.313,300.805c-4.623,0-8.2-3.222-8.2-8.037c0-4.783,3.577-8.069,8.2-8.069
					c4.588,0,8.163,3.286,8.163,8.069C507.477,297.583,503.901,300.805,499.313,300.805z M499.313,287.237
					c-3.123,0-5.044,2.407-5.044,5.433c0,3.059,1.921,5.468,5.044,5.468c3.091,0,5.009-2.409,5.009-5.468
					C504.322,289.644,502.404,287.237,499.313,287.237z"/>
				<path fill="#FFFFFF" d="M524.17,300.447h-3.125v-8.622c0-2.604-0.454-4.557-3.219-4.557c-2.896,0-3.972,2.441-3.972,5.401v7.777
					h-3.123v-15.456h3.123l-0.032,2.44h0.098c0.813-1.528,2.473-2.733,4.721-2.733c4.391,0,5.529,2.896,5.529,6.605V300.447z"/>
				<path fill="#FFFFFF" d="M537.153,299.438c-1.076,0.878-2.504,1.367-4.295,1.367c-2.604,0-4.72-1.074-6.022-2.765l1.496-1.823
					c1.174,1.432,3.124,2.211,4.559,2.211c1.432,0,2.959-0.52,2.959-2.211s-2.439-2.213-3.481-2.57
					c-1.041-0.358-1.4-0.424-2.114-0.815c-0.977-0.487-2.44-1.496-2.44-3.708c0-2.863,2.473-4.426,5.204-4.426
					c2.734,0,4.296,0.977,5.272,2.017l-1.3,1.92c-0.913-0.943-2.409-1.659-3.904-1.659c-1.5,0-2.473,0.65-2.473,1.919
					c0,1.269,1.495,1.821,3.024,2.31c0.846,0.293,1.43,0.487,2.08,0.748c0.622,0.26,1.336,0.651,1.791,1.108
					c0.586,0.552,1.236,1.464,1.236,2.863C538.745,297.421,538.161,298.593,537.153,299.438z"/>
				<path fill="#FFFFFF" d="M555.826,293.451h-11.908c0.163,3.059,2.113,4.914,4.978,4.914c2.896,0,4.752-1.561,5.108-1.79
					l1.301,1.79c-0.191,0.162-2.178,2.44-6.801,2.44c-4.586,0-7.745-3.188-7.745-8.102c0-4.881,3.55-8.004,7.845-8.004
					c4.296,0,7.321,3.058,7.321,7.386C555.925,292.67,555.826,293.451,555.826,293.451z M552.963,291.369
					c-0.031-1.725-1.334-4.425-4.459-4.425c-3.087,0-4.457,2.571-4.553,4.425H552.963z"/>
				<path fill="#FFFFFF" d="M560.708,281.834c-1.204,0-2.05-0.813-2.05-1.919c0-1.106,0.846-1.92,2.05-1.92
					c1.169,0,2.017,0.813,2.017,1.92C562.725,281.021,561.877,281.834,560.708,281.834z M562.27,300.447h-3.125v-15.456h3.125
					V300.447z"/>
				<path fill="#FFFFFF" d="M569.945,300.447h-3.091v-22.452h3.091V300.447z"/>
				<path fill="#FFFFFF" d="M595.845,300.447h-2.995v-2.474h-0.063c-1.271,1.888-3.188,2.832-5.437,2.832
					c-4.586,0-7.514-3.514-7.514-8.102c0-4.555,2.928-8.004,7.45-8.004c2.505,0,4.327,1.106,5.404,2.701h0.062v-9.404h3.093V300.447
					z M587.94,287.237c-3.095,0-4.916,2.342-4.916,5.433c0,3.092,1.821,5.468,4.916,5.468c3.089,0,4.909-2.376,4.909-5.468
					C592.85,289.579,591.029,287.237,587.94,287.237z"/>
				<path fill="#FFFFFF" d="M614.322,293.451h-11.908c0.163,3.059,2.117,4.914,4.98,4.914c2.896,0,4.75-1.561,5.109-1.79l1.3,1.79
					c-0.195,0.162-2.182,2.44-6.8,2.44c-4.59,0-7.745-3.188-7.745-8.102c0-4.881,3.546-8.004,7.841-8.004
					c4.296,0,7.322,3.058,7.322,7.386C614.422,292.67,614.322,293.451,614.322,293.451z M611.463,291.369
					c-0.032-1.725-1.336-4.425-4.459-4.425c-3.091,0-4.457,2.571-4.557,4.425H611.463z"/>
				<path fill="#FFFFFF" d="M626.329,299.438c-1.073,0.878-2.507,1.367-4.295,1.367c-2.603,0-4.719-1.074-6.019-2.765l1.495-1.823
					c1.171,1.432,3.125,2.211,4.557,2.211c1.433,0,2.96-0.52,2.96-2.211s-2.441-2.213-3.482-2.57
					c-1.041-0.358-1.399-0.424-2.113-0.815c-0.978-0.487-2.441-1.496-2.441-3.708c0-2.863,2.473-4.426,5.205-4.426
					c2.736,0,4.297,0.977,5.272,2.017l-1.3,1.92c-0.912-0.943-2.411-1.659-3.907-1.659c-1.495,0-2.473,0.65-2.473,1.919
					c0,1.269,1.496,1.821,3.027,2.31c0.844,0.293,1.434,0.487,2.08,0.748c0.62,0.26,1.336,0.651,1.791,1.108
					c0.586,0.552,1.236,1.464,1.236,2.863C627.923,297.421,627.336,298.593,626.329,299.438z"/>
				<path fill="#FFFFFF" d="M649.459,300.447h-3.023l-0.035-1.952c-0.614,0.651-2.08,2.31-4.91,2.31c-2.865,0-5.34-1.79-5.34-4.783
					c0-3.026,2.475-4.556,6.054-4.718l4.132-0.164v-0.617c0-2.343-1.591-3.515-3.838-3.515c-2.244,0-4.133,1.009-4.654,1.334
					l-0.943-2.082c1.141-0.651,3.223-1.562,5.791-1.562c2.572,0,4.067,0.716,5.11,1.757c1.041,1.074,1.657,2.375,1.657,5.011
					V300.447z M646.37,293.028l-3.611,0.227c-2.505,0.132-3.514,1.206-3.514,2.669c0,1.463,1.137,2.669,3.187,2.669
					c2.019,0,3.354-1.367,3.938-2.247V293.028z"/>
				<path fill="#FFFFFF" d="M661.889,287.855h-0.13c-0.295-0.13-0.846-0.326-1.69-0.326c-1.368,0-2.216,0.878-2.541,1.301
					c-0.291,0.424-0.943,1.627-0.943,3.905v7.711h-3.125v-15.456h3.125l-0.029,2.375h0.096c0.745-1.757,2.149-2.668,3.805-2.668
					c1.045,0,1.629,0.26,1.629,0.26L661.889,287.855z"/>
				<path fill="#FFFFFF" d="M671.877,300.284c0,0-1.204,0.521-2.832,0.521c-1.627,0-2.636-0.617-3.286-1.594
					c-0.649-0.976-0.781-2.18-0.781-4.621v-7.061h-2.275v-2.504h2.275v-4.621h3.125v4.621h3.711v2.504h-3.711v6.997
					c0,1.301,0.031,2.18,0.393,2.831c0.291,0.487,0.714,0.782,1.593,0.782c0.912,0,1.594-0.359,1.594-0.359L671.877,300.284z"/>
				<path fill="#FFFFFF" d="M683.298,299.438c-1.077,0.878-2.507,1.367-4.296,1.367c-2.604,0-4.718-1.074-6.021-2.765l1.496-1.823
					c1.175,1.432,3.123,2.211,4.559,2.211c1.43,0,2.957-0.52,2.957-2.211s-2.442-2.213-3.481-2.57
					c-1.041-0.358-1.398-0.424-2.114-0.815c-0.975-0.487-2.438-1.496-2.438-3.708c0-2.863,2.473-4.426,5.205-4.426
					c2.731,0,4.295,0.977,5.272,2.017l-1.305,1.92c-0.911-0.943-2.407-1.659-3.902-1.659c-1.498,0-2.475,0.65-2.475,1.919
					c0,1.269,1.499,1.821,3.022,2.31c0.85,0.293,1.437,0.487,2.086,0.748c0.618,0.26,1.336,0.651,1.791,1.108
					c0.586,0.552,1.236,1.464,1.236,2.863C684.891,297.421,684.305,298.593,683.298,299.438z"/>
				<path fill="#FFFFFF" d="M485.809,337.05h-2.991v-2.475h-0.065c-1.271,1.889-3.188,2.834-5.435,2.834
					c-4.588,0-7.516-3.516-7.516-8.104c0-4.555,2.928-8.004,7.45-8.004c2.507,0,4.329,1.106,5.402,2.699h0.065v-9.399h3.089V337.05z
					 M477.904,323.839c-3.091,0-4.914,2.343-4.914,5.435c0,3.091,1.823,5.468,4.914,5.468s4.913-2.377,4.913-5.468
					C482.817,326.182,480.995,323.839,477.904,323.839z"/>
				<path fill="#FFFFFF" d="M503.413,337.05h-3.027l-0.032-2.213c-0.849,1.497-2.602,2.572-4.783,2.572
					c-2.212,0-3.484-0.75-4.298-1.791c-0.779-1.043-1.137-2.568-1.137-4.784v-9.271h3.091v9.142c0,2.115,0.457,4.1,3.221,4.1
					c2.734,0,3.839-2.343,3.839-4.947v-8.294h3.127V337.05z"/>
				<path fill="#FFFFFF" d="M532.922,334.121c-1.399,1.561-3.938,3.32-8.199,3.32c-6.541,0-11.488-4.589-11.488-11.584
					c0-6.996,5.045-11.584,11.488-11.584c4.199,0,6.733,1.755,7.972,2.959l-1.336,2.541c-0.877-1.109-3.384-2.734-6.505-2.734
					c-4.852,0-8.365,3.481-8.365,8.752c0,5.272,3.548,8.755,8.365,8.755c2.96,0,5.237-1.142,6.7-2.734L532.922,334.121z"/>
				<path fill="#FFFFFF" d="M547.822,337.05h-3.025l-0.033-1.952c-0.618,0.652-2.082,2.312-4.914,2.312
					c-2.859,0-5.336-1.791-5.336-4.786c0-3.025,2.477-4.555,6.052-4.716l4.132-0.164v-0.618c0-2.343-1.593-3.514-3.839-3.514
					c-2.245,0-4.134,1.01-4.652,1.334l-0.942-2.084c1.136-0.647,3.222-1.561,5.79-1.561c2.573,0,4.068,0.718,5.109,1.759
					c1.041,1.072,1.659,2.373,1.659,5.009V337.05z M544.731,329.63l-3.613,0.228c-2.505,0.132-3.514,1.206-3.514,2.67
					s1.139,2.668,3.188,2.668c2.016,0,3.353-1.366,3.938-2.245V329.63z"/>
				<path fill="#FFFFFF" d="M565.261,337.05h-3.125v-8.622c0-2.604-0.454-4.557-3.218-4.557c-2.897,0-3.973,2.442-3.973,5.402v7.776
					h-3.123v-15.456h3.123l-0.032,2.44h0.098c0.812-1.529,2.473-2.733,4.721-2.733c4.391,0,5.529,2.896,5.529,6.606V337.05z"/>
				<path fill="#FFFFFF" d="M581.432,337.05h-3.027l-0.032-1.952c-0.62,0.652-2.082,2.312-4.913,2.312
					c-2.863,0-5.337-1.791-5.337-4.786c0-3.025,2.474-4.555,6.051-4.716l4.134-0.164v-0.618c0-2.343-1.594-3.514-3.839-3.514
					s-4.134,1.01-4.654,1.334l-0.945-2.084c1.141-0.647,3.223-1.561,5.795-1.561c2.57,0,4.066,0.718,5.107,1.759
					c1.039,1.072,1.661,2.373,1.661,5.009V337.05z M578.336,329.63l-3.609,0.228c-2.504,0.132-3.514,1.206-3.514,2.67
					s1.139,2.668,3.188,2.668c2.018,0,3.352-1.366,3.936-2.245V329.63z"/>
				<path fill="#FFFFFF" d="M600.399,337.05h-2.995v-2.475h-0.063c-1.271,1.889-3.191,2.834-5.437,2.834
					c-4.588,0-7.516-3.516-7.516-8.104c0-4.555,2.928-8.004,7.452-8.004c2.507,0,4.327,1.106,5.402,2.699h0.062v-9.399h3.095V337.05
					z M592.491,323.839c-3.092,0-4.912,2.343-4.912,5.435c0,3.091,1.82,5.468,4.912,5.468c3.091,0,4.913-2.377,4.913-5.468
					C597.404,326.182,595.582,323.839,592.491,323.839z"/>
				<path fill="#FFFFFF" d="M616.861,337.05h-3.027l-0.032-1.952c-0.616,0.652-2.082,2.312-4.915,2.312
					c-2.859,0-5.332-1.791-5.332-4.786c0-3.025,2.473-4.555,6.05-4.716l4.132-0.164v-0.618c0-2.343-1.596-3.514-3.841-3.514
					s-4.13,1.01-4.65,1.334l-0.945-2.084c1.141-0.647,3.223-1.561,5.793-1.561s4.066,0.718,5.107,1.759
					c1.043,1.072,1.661,2.373,1.661,5.009V337.05z M613.771,329.63l-3.611,0.228c-2.509,0.132-3.519,1.206-3.519,2.67
					s1.141,2.668,3.193,2.668c2.016,0,3.352-1.366,3.937-2.245V329.63z"/>
			</g>
		</g>
		<g>
			<path fill="#FFFFFF" d="M247.299,297.518c-1.396,1.562-3.937,3.321-8.198,3.321c-6.539,0-11.486-4.589-11.486-11.585
				c0-6.996,5.043-11.584,11.486-11.584c4.198,0,6.734,1.758,7.97,2.961l-1.332,2.538c-0.877-1.106-3.384-2.733-6.509-2.733
				c-4.848,0-8.361,3.482-8.361,8.753s3.546,8.752,8.361,8.752c2.963,0,5.241-1.138,6.705-2.733L247.299,297.518z"/>
			<path fill="#FFFFFF" d="M262.203,300.447h-3.027l-0.034-1.952c-0.616,0.651-2.082,2.31-4.912,2.31
				c-2.864,0-5.336-1.79-5.336-4.783c0-3.026,2.473-4.556,6.05-4.718l4.134-0.164v-0.617c0-2.343-1.593-3.515-3.839-3.515
				c-2.245,0-4.134,1.009-4.654,1.334l-0.943-2.082c1.139-0.651,3.22-1.562,5.793-1.562c2.568,0,4.066,0.716,5.107,1.757
				c1.043,1.074,1.661,2.375,1.661,5.011V300.447z M259.11,293.028l-3.611,0.227c-2.504,0.132-3.514,1.206-3.514,2.669
				c0,1.463,1.139,2.669,3.189,2.669c2.016,0,3.352-1.367,3.936-2.247V293.028z"/>
			<path fill="#FFFFFF" d="M279.64,300.447h-3.123v-8.622c0-2.604-0.455-4.557-3.222-4.557c-2.896,0-3.968,2.441-3.968,5.401v7.777
				h-3.123v-15.456h3.123l-0.032,2.44h0.096c0.814-1.528,2.473-2.733,4.718-2.733c4.393,0,5.532,2.896,5.532,6.605V300.447z"/>
			<path fill="#FFFFFF" d="M295.81,300.447h-3.025l-0.034-1.952c-0.618,0.651-2.082,2.31-4.912,2.31
				c-2.863,0-5.338-1.79-5.338-4.783c0-3.026,2.475-4.556,6.052-4.718l4.132-0.164v-0.617c0-2.343-1.593-3.515-3.836-3.515
				c-2.248,0-4.134,1.009-4.654,1.334l-0.945-2.082c1.141-0.651,3.223-1.562,5.793-1.562s4.066,0.716,5.107,1.757
				c1.043,1.074,1.661,2.375,1.661,5.011V300.447z M292.719,293.028l-3.611,0.227c-2.507,0.132-3.514,1.206-3.514,2.669
				c0,1.463,1.137,2.669,3.187,2.669c2.018,0,3.352-1.367,3.938-2.247V293.028z"/>
			<path fill="#FFFFFF" d="M314.776,300.447h-2.991v-2.474h-0.064c-1.272,1.888-3.19,2.832-5.436,2.832
				c-4.586,0-7.516-3.514-7.516-8.102c0-4.555,2.929-8.004,7.452-8.004c2.505,0,4.328,1.106,5.4,2.701h0.064v-9.404h3.091V300.447z
				 M306.872,287.237c-3.091,0-4.914,2.342-4.914,5.433c0,3.092,1.823,5.468,4.914,5.468s4.914-2.376,4.914-5.468
				C311.785,289.579,309.962,287.237,306.872,287.237z"/>
			<path fill="#FFFFFF" d="M331.24,300.447h-3.027l-0.032-1.952c-0.618,0.651-2.082,2.31-4.914,2.31
				c-2.863,0-5.336-1.79-5.336-4.783c0-3.026,2.473-4.556,6.055-4.718l4.132-0.164v-0.617c0-2.343-1.596-3.515-3.841-3.515
				c-2.246,0-4.132,1.009-4.652,1.334l-0.943-2.082c1.139-0.651,3.223-1.562,5.791-1.562c2.572,0,4.068,0.716,5.109,1.757
				c1.041,1.074,1.659,2.375,1.659,5.011V300.447z M328.149,293.028l-3.611,0.227c-2.507,0.132-3.514,1.206-3.514,2.669
				c0,1.463,1.139,2.669,3.188,2.669c2.018,0,3.35-1.367,3.937-2.247V293.028z"/>
			<path fill="#FFFFFF" d="M360.458,297.518c-1.4,1.562-3.937,3.321-8.2,3.321c-6.541,0-11.486-4.589-11.486-11.585
				c0-6.996,5.043-11.584,11.486-11.584c4.196,0,6.736,1.758,7.973,2.961l-1.334,2.538c-0.879-1.106-3.384-2.733-6.507-2.733
				c-4.85,0-8.363,3.482-8.363,8.753s3.545,8.752,8.363,8.752c2.959,0,5.236-1.138,6.7-2.733L360.458,297.518z"/>
			<path fill="#FFFFFF" d="M370.185,300.805c-4.621,0-8.2-3.222-8.2-8.037c0-4.783,3.579-8.069,8.2-8.069
				c4.586,0,8.168,3.286,8.168,8.069C378.353,297.583,374.771,300.805,370.185,300.805z M370.185,287.237
				c-3.125,0-5.045,2.407-5.045,5.433c0,3.059,1.92,5.468,5.045,5.468c3.091,0,5.009-2.409,5.009-5.468
				C375.194,289.644,373.276,287.237,370.185,287.237z"/>
			<path fill="#FFFFFF" d="M394.749,300.447h-3.025l-0.034-2.212c-0.846,1.497-2.603,2.57-4.782,2.57
				c-2.213,0-3.481-0.748-4.295-1.79c-0.781-1.042-1.136-2.571-1.136-4.783v-9.273h3.089v9.144c0,2.115,0.455,4.098,3.22,4.098
				c2.734,0,3.841-2.341,3.841-4.945v-8.296h3.123V300.447z"/>
			<path fill="#FFFFFF" d="M412.48,300.447h-3.123v-8.622c0-2.604-0.454-4.557-3.222-4.557c-2.894,0-3.969,2.441-3.969,5.401v7.777
				h-3.125v-15.456h3.125l-0.032,2.44h0.098c0.812-1.528,2.473-2.733,4.721-2.733c4.391,0,5.527,2.896,5.527,6.605V300.447z"/>
			<path fill="#FFFFFF" d="M429.594,298.462c-0.454,0.457-2.05,2.343-6.182,2.343c-4.165,0-7.809-3.123-7.809-8.069
				c0-4.979,3.805-8.037,7.906-8.037c4.134,0,5.825,2.017,5.986,2.213l-1.106,2.277c-0.519-0.521-1.887-1.887-4.62-1.887
				c-2.732,0-5.01,2.082-5.01,5.337c0,3.252,2.049,5.499,5.041,5.499c3.025,0,4.688-1.953,4.688-1.953L429.594,298.462z"/>
			<path fill="#FFFFFF" d="M433.79,281.834c-1.204,0-2.05-0.813-2.05-1.919c0-1.106,0.846-1.92,2.05-1.92
				c1.173,0,2.016,0.813,2.016,1.92C435.806,281.021,434.963,281.834,433.79,281.834z M435.352,300.447h-3.125v-15.456h3.125
				V300.447z"/>
			<path fill="#FFFFFF" d="M443.03,300.447h-3.091v-22.452h3.091V300.447z"/>
			<path fill="#FFFFFF" d="M236.367,316.907c0,0-0.877-0.291-1.757-0.291c-2.048,0-2.375,1.527-2.375,3.284v1.725h3.677v2.507
				h-3.677v12.918h-3.091v-12.918h-2.214v-2.507h2.214v-1.561c0-2.017,0.391-3.318,1.041-4.132c0.684-0.846,1.92-1.693,3.709-1.693
				c1.791,0,2.668,0.361,2.668,0.361L236.367,316.907z"/>
			<path fill="#FFFFFF" d="M244.567,337.409c-4.623,0-8.2-3.223-8.2-8.038c0-4.784,3.577-8.07,8.2-8.07
				c4.586,0,8.168,3.286,8.168,8.07C252.735,334.187,249.153,337.409,244.567,337.409z M244.567,323.839
				c-3.123,0-5.045,2.407-5.045,5.435c0,3.059,1.923,5.468,5.045,5.468c3.091,0,5.011-2.409,5.011-5.468
				C249.578,326.246,247.658,323.839,244.567,323.839z"/>
			<path fill="#FFFFFF" d="M264.413,324.457h-0.128c-0.295-0.13-0.847-0.325-1.695-0.325c-1.364,0-2.211,0.878-2.537,1.301
				c-0.293,0.425-0.943,1.627-0.943,3.906v7.711h-3.125v-15.456h3.125l-0.034,2.375h0.1c0.746-1.755,2.146-2.668,3.807-2.668
				c1.041,0,1.625,0.263,1.625,0.263L264.413,324.457z"/>
			<path fill="#FFFFFF" d="M280.876,336.887c0,0-1.205,0.522-2.832,0.522c-1.627,0-2.634-0.62-3.287-1.598
				c-0.65-0.975-0.779-2.178-0.779-4.62v-7.06h-2.277v-2.507h2.277v-4.62h3.125v4.62h3.709v2.507h-3.709v6.996
				c0,1.3,0.032,2.181,0.389,2.831c0.293,0.486,0.716,0.782,1.595,0.782c0.911,0,1.593-0.359,1.593-0.359L280.876,336.887z"/>
			<path fill="#FFFFFF" d="M297.08,337.05h-3.123v-8.754c0-2.21-0.359-4.425-3.19-4.425c-2.832,0-4.034,2.442-4.034,5.531v7.647
				h-3.093v-22.449h3.093v9.434h0.066c0.813-1.529,2.504-2.733,4.75-2.733c4.457,0,5.531,2.863,5.531,6.54V337.05z"/>
			<path fill="#FFFFFF" d="M315.331,330.055h-11.909c0.163,3.057,2.118,4.913,4.979,4.913c2.897,0,4.752-1.563,5.109-1.79
				l1.302,1.79c-0.195,0.162-2.182,2.441-6.802,2.441c-4.588,0-7.743-3.19-7.743-8.104c0-4.882,3.545-8.004,7.841-8.004
				s7.322,3.059,7.322,7.386C315.43,329.273,315.331,330.055,315.331,330.055z M312.467,327.971
				c-0.032-1.725-1.332-4.425-4.457-4.425c-3.091,0-4.457,2.57-4.555,4.425H312.467z"/>
			<path fill="#FFFFFF" d="M343.962,337.05h-3.514l-2.309-5.858h-9.632l-2.309,5.858h-3.32l9.143-22.518h2.766L343.962,337.05z
				 M337.26,328.559l-3.936-10.09l-3.938,10.09H337.26z"/>
			<path fill="#FFFFFF" d="M354.567,324.457h-0.127c-0.295-0.13-0.848-0.325-1.693-0.325c-1.366,0-2.213,0.878-2.539,1.301
				c-0.293,0.425-0.943,1.627-0.943,3.906v7.711h-3.125v-15.456h3.125l-0.034,2.375h0.1c0.748-1.755,2.146-2.668,3.807-2.668
				c1.041,0,1.627,0.263,1.627,0.263L354.567,324.457z"/>
			<path fill="#FFFFFF" d="M364.558,336.887c0,0-1.205,0.522-2.832,0.522c-1.627,0-2.636-0.62-3.287-1.598
				c-0.65-0.975-0.781-2.178-0.781-4.62v-7.06h-2.277v-2.507h2.277v-4.62h3.125v4.62h3.709v2.507h-3.709v6.996
				c0,1.3,0.032,2.181,0.389,2.831c0.295,0.486,0.718,0.782,1.595,0.782c0.911,0,1.595-0.359,1.595-0.359L364.558,336.887z"/>
			<path fill="#FFFFFF" d="M375.976,336.041c-1.073,0.877-2.504,1.368-4.293,1.368c-2.604,0-4.72-1.075-6.02-2.768l1.496-1.821
				c1.172,1.43,3.125,2.212,4.557,2.212c1.432,0,2.961-0.519,2.961-2.212c0-1.692-2.44-2.213-3.481-2.57
				c-1.041-0.359-1.4-0.425-2.116-0.813c-0.975-0.49-2.438-1.5-2.438-3.709c0-2.866,2.473-4.427,5.205-4.427
				c2.734,0,4.295,0.977,5.272,2.018l-1.302,1.918c-0.911-0.94-2.409-1.658-3.904-1.658c-1.498,0-2.473,0.649-2.473,1.922
				c0,1.269,1.496,1.822,3.025,2.31c0.846,0.293,1.432,0.486,2.082,0.749c0.618,0.26,1.336,0.65,1.791,1.105
				c0.586,0.552,1.236,1.464,1.236,2.863C377.571,334.023,376.985,335.195,375.976,336.041z"/>
		</g>
	</g>
	<g>
		<path fill="#FFFFFF" d="M201.964,337.913c-5.043-4.879-19.522-9.114-34.403-10.006c-1.065,0.817-1.812,1.657-2.229,2.552
			c12.535,0.573,24.586,4.146,29.039,8.135c4.036,3.192,3.424,7.579-1.252,10.601c-6.828,4.77-20.928,6.968-36.229,6.914
			c-15.307,0.054-29.41-2.145-36.24-6.914c-4.674-3.021-5.284-7.408-1.25-10.601c4.453-3.988,16.5-7.562,29.041-8.135
			c-0.417-0.895-1.175-1.734-2.24-2.552c-14.862,0.892-29.35,5.127-34.395,10.006c-6.832,6.152-1.388,13.216,13.536,17.575
			c8.339,2.534,19.993,3.892,31.547,3.918c11.546-0.026,23.208-1.384,31.533-3.918C203.344,351.129,208.794,344.065,201.964,337.913
			z"/>
		<path fill="#FFFFFF" d="M194,287.322c-0.275-4.105-3.59-7.3-7.564-8.758c1.629-2.287,1.86-4.799,0.7-7.609
			c-1.858-4.433-7.019-5.845-10.07-5.633c-4.347,0.308-6.928,2.111-11.506,5.624c-1.059-0.822-3.215-2.424-4.16-3.153h-0.002
			c0,0,3.121-2.563,6.405-4.305c3.141-1.668,5.225-1.872,5.225-1.872s-5.484-7.502-16.121-7.571c-0.012,0-0.014,0-0.014,0
			c-0.004,0-0.008,0-0.008,0s-0.004,0-0.008,0c0,0,0,0-0.014,0c-10.635,0.069-16.121,7.571-16.121,7.571s2.087,0.203,5.227,1.872
			c3.284,1.742,6.405,4.305,6.405,4.305c-0.949,0.729-3.103,2.331-4.164,3.153c-4.579-3.513-7.159-5.315-11.504-5.624
			c-3.053-0.211-8.214,1.2-10.077,5.633c-1.156,2.81-0.925,5.322,0.702,7.609c-3.966,1.458-7.287,4.652-7.562,8.758
			c-0.281,4.102,2.134,7.905,6.399,9.749c-1.19,1.538-1.769,3.28-1.769,4.775c0,3.974,3.558,9.42,11.179,9.201
			c5.673-0.151,7.943-1.915,12.394-5.365c0.257,0.394,3.741,5.873,3.741,15.428c0,0,0.477,7.269-3.139,25.08h0.01
			c0,0.951,3.717,1.717,8.304,1.717c4.578,0,8.295-0.766,8.295-1.717h0.016c-3.625-17.812-3.143-25.08-3.143-25.08
			c0-9.555,3.488-15.034,3.741-15.428c4.453,3.45,6.714,5.214,12.388,5.365c7.631,0.219,11.189-5.227,11.189-9.201
			c0-1.495-0.584-3.237-1.773-4.775C191.87,295.227,194.287,291.424,194,287.322z M176.906,271.042
			c3.954-0.219,5.527,2.19,5.196,3.798c-0.385,1.976-2.883,3.468-5.183,3.212c-2.271-0.238-3.972-1.386-6.742-3.6
			C172.044,273.002,174.326,271.155,176.906,271.042z M165.663,277.887c1.304,0.955,2.521,1.902,3.488,2.617
			c0.519,0.394,0.959,0.77,1.498,1.116c-0.666,0.49-1.185,0.914-1.954,1.507c-0.555,0.43-1.442,1.078-2.277,1.692
			c-1.368-1.031-3.017-2.253-4.95-3.741C162.771,280.11,164.144,279.019,165.663,277.887z M161.064,274.386
			c-1.306,0.969-2.471,1.927-4.116,3.154l-0.046,0.023l-0.042-0.023c-1.647-1.227-2.815-2.186-4.12-3.154
			c1.045-0.813,2.297-1.764,4.024-3.072l0.138-0.105l0.138,0.105C158.775,272.622,160.016,273.573,161.064,274.386z
			 M151.242,260.537c0,0,1.439-1.552,5.643-1.583c4.204,0.031,5.644,1.583,5.644,1.583s-1.087,0.593-2.644,1.678
			c-1.955,1.353-2.947,2.151-3,2.208c-0.052-0.057-1.041-0.854-2.999-2.208C152.326,261.13,151.242,260.537,151.242,260.537z
			 M156.695,284.669l0.208-0.157l0.209,0.157c1.512,1.181,3.079,2.29,4.768,3.61c-1.007,0.729-1.815,1.346-2.522,1.892
			c-0.722,0.517-1.508,1.128-2.332,1.742l-0.124,0.096l-0.122-0.096c-0.815-0.614-1.615-1.226-2.321-1.742
			c-0.722-0.546-1.531-1.163-2.528-1.892C153.61,286.959,155.19,285.851,156.695,284.669z M148.135,277.887
			c1.516,1.132,2.903,2.223,4.211,3.19c-1.94,1.488-3.585,2.71-4.951,3.741c-0.837-0.614-1.725-1.262-2.281-1.692
			c-0.768-0.593-1.291-1.017-1.95-1.507c0.54-0.346,0.967-0.722,1.485-1.116C145.624,279.79,146.851,278.842,148.135,277.887z
			 M136.904,271.042c2.579,0.113,4.858,1.96,6.712,3.411c-2.76,2.214-4.455,3.361-6.736,3.6c-2.299,0.255-4.784-1.236-5.179-3.212
			C131.372,273.233,132.939,270.823,136.904,271.042z M125.334,288.44c-0.086-2.135,1.439-5.073,7.023-5.397
			c3.765-0.218,6.437,2.047,10.571,5.131c-3.34,2.515-5.931,4.66-10.683,5.002C128.397,293.444,125.439,290.592,125.334,288.44z
			 M136.034,305.73c-4.016,0.193-6.379-1.79-6.246-3.981c0.114-1.729,3.913-5.735,11.81-2.179c1.106,0.506,1.972,1.062,2.896,1.84
			C140.577,304.344,139.082,305.581,136.034,305.73z M148.781,298.123c-1.456-1.391-3.067-2.61-5.185-3.583
			c1.252-0.839,2.48-1.772,3.773-2.832c0.052-0.059,0.067-0.059,0.124-0.096c1.761,1.332,3.47,2.606,4.954,3.749
			C151.17,296.348,149.978,297.232,148.781,298.123z M157.013,313.148l-0.11,0.488l-0.114-0.488
			c-0.955-4.105-2.233-7.705-3.956-10.375c1.434-1.078,2.73-2.077,4.07-3.074c1.344,0.997,2.638,1.996,4.074,3.074
			C159.254,305.443,157.966,309.043,157.013,313.148z M165.025,298.123c-1.202-0.89-2.381-1.775-3.665-2.762
			c1.483-1.143,3.185-2.417,4.947-3.749c0.062,0.037,0.078,0.037,0.13,0.096c1.296,1.059,2.524,1.992,3.763,2.832
			C168.096,295.512,166.479,296.732,165.025,298.123z M177.775,305.73c-3.059-0.15-4.537-1.386-8.467-4.32
			c0.921-0.778,1.794-1.334,2.901-1.84c7.903-3.557,11.691,0.45,11.795,2.179C184.153,303.94,181.784,305.924,177.775,305.73z
			 M181.561,293.176c-4.75-0.342-7.347-2.488-10.685-5.002c4.134-3.084,6.808-5.349,10.577-5.131
			c5.576,0.324,7.111,3.262,7.021,5.397C188.364,290.592,185.405,293.444,181.561,293.176z"/>
	</g>
</g>
<g>
</g>
<g>
</g>
<g>
</g>
<g>
</g>
<g>
</g>
<g>
</g>
</svg>
