<svg id="Layer_1" data-name="Layer 1" xmlns="http://www.w3.org/2000/svg" viewBox="0 0 66.71 60.13"><defs><style>.cls-1{fill:#f5d93e;}</style></defs><title>frontpageicons</title><path class="cls-1" d="M0,26.07,9.53,57.48l13.69-8.05,15.84.81L49.6,40.57l17.11-1.21L53.82,12.78l-14.7-.6-9.87,8.25h0L26.5,20c-.35.51-.75,1.14-1.19,1.83l3.53.51,3,9.21-.77,1.06-.55.76,1,1,.68-.94.17-.24,4.9,14.9-14.58-.74-12,7.06L6.88,41.82l1.28.41.46-1.34c-.83-.25-1.59-.5-2.24-.75L2.37,27l8.16-5.15c-.4-.63-.77-1.2-1.1-1.69Zm33.87,5.16c.32-.43.64-.86,1-1.27l-.92-1.11-.58.75L30.8,21.88l9-7.57,12.61.3,6.3,12.93L57.91,27l-.71,1.23q1.4,1,2.89,2.08l3.54,7.26-14.8,1.08-9.63,8.84Z"/><path class="cls-1" d="M8.41,12.18a10.39,10.39,0,0,0,2.17,6c2,2.84,7.36,11.89,7.36,11.89s5.33-9,7.36-11.89a10.38,10.38,0,0,0,2.17-6,9.53,9.53,0,1,0-19.06,0Zm4.33-.74a5.2,5.2,0,1,1,5.2,5.13A5.17,5.17,0,0,1,12.74,11.44Z"/><path class="cls-1" d="M23.08,43.14l-.37-1.4a11.79,11.79,0,0,0,1.79-1.26l1,1A12.92,12.92,0,0,1,23.08,43.14Z"/><path class="cls-1" d="M13.75,43.57c-.79-.14-1.59-.3-2.37-.48l.46-1.35c.75.17,1.5.32,2.26.46Z"/><path class="cls-1" d="M43.66,21.71l-.12,1.44a7,7,0,0,0-2,.6l-.09,0-.76-1.2.24-.12A8.6,8.6,0,0,1,43.66,21.71Z"/><path class="cls-1" d="M27.87,39.13l-1-1c.57-.64,1.12-1.33,1.67-2l1,1C29,37.8,28.44,38.48,27.87,39.13Z"/><path class="cls-1" d="M37.92,24.48l.76,1.21A22.61,22.61,0,0,0,37,27.36l-.91-1.1A23.12,23.12,0,0,1,37.92,24.48Z"/><path class="cls-1" d="M49.76,22.61l-.67,1.28a16.46,16.46,0,0,0-2.22-.6L47,21.86A17.77,17.77,0,0,1,49.76,22.61Z"/><path class="cls-1" d="M19.53,42.67l.36,1.39q-.49,0-1,0c-.56,0-1.17,0-1.8-.08l.35-1.38A16.66,16.66,0,0,0,19.53,42.67Z"/><path class="cls-1" d="M55.1,25.17l-.71,1.23q-1.15-.68-2.23-1.22l.66-1.26Q53.93,24.48,55.1,25.17Z"/></svg>