<svg id="Layer_1" data-name="Layer 1" xmlns="http://www.w3.org/2000/svg" viewBox="0 0 66.71 60.13"><defs><style>.cls-1{fill:#f5d93e;}</style></defs><title>frontpageicons</title><path class="cls-1" d="M53.69,6.71H48.95V3.38a1.37,1.37,0,1,0-2.75,0V6.71H39.47V3.38a1.37,1.37,0,1,0-2.75,0V6.71H30V3.38a1.37,1.37,0,1,0-2.75,0V6.71H20.51V3.38a1.37,1.37,0,1,0-2.75,0V6.71H5.67V58.12H61V6.71Zm4.6,48.67H8.41V9.45h9.35v2.92a1.37,1.37,0,1,0,2.75,0V9.45h6.73v2.92a1.37,1.37,0,1,0,2.75,0V9.45h6.73v2.92a1.37,1.37,0,1,0,2.75,0V9.45H46.2v2.92a1.37,1.37,0,1,0,2.75,0V9.45H58.3Z"/><rect class="cls-1" x="17.44" y="32.29" width="3.44" height="3.45"/><rect class="cls-1" x="17.46" y="41.65" width="3.45" height="3.45"/><rect class="cls-1" x="26.91" y="41.65" width="3.44" height="3.45"/><rect class="cls-1" x="36.36" y="41.65" width="3.45" height="3.45"/><rect class="cls-1" x="17.35" y="22.92" width="3.45" height="3.45"/><rect class="cls-1" x="26.81" y="32.28" width="3.44" height="3.45"/><rect class="cls-1" x="36.26" y="32.28" width="3.44" height="3.45"/><rect class="cls-1" x="45.71" y="32.28" width="3.44" height="3.45"/><rect class="cls-1" x="26.72" y="22.91" width="3.45" height="3.45"/><rect class="cls-1" x="36.17" y="22.91" width="3.44" height="3.45"/><rect class="cls-1" x="45.62" y="22.91" width="3.45" height="3.45"/></svg>