<svg id="Layer_1" data-name="Layer 1" xmlns="http://www.w3.org/2000/svg" viewBox="0 0 66.71 60.13"><defs><style>.cls-1{fill:#f5d93e;}</style></defs><title>frontpageicons</title><path class="cls-1" d="M23.36,60.13V54.21q0-19.89,0-39.74a2.37,2.37,0,0,1,1.22-2.32c5.66-3.62,11.27-7.32,16.9-11C42,.83,42.53.5,43.36,0c0,2.62.06,5-.06,7.35,0,.41-.66.91-1.1,1.22-3.59,2.38-7.21,4.78-10.88,7a3.12,3.12,0,0,0-1.77,3.18c.14,2.6,0,5.19,0,8.15,3.45-2.15,6.63-4.14,10.08-6.27,0,2.13.06,4-.06,5.88,0,.33-.55.72-.94.94-2.62,1.71-5.25,3.45-7.93,5.11a2.24,2.24,0,0,0-1.19,2.18c.06,6.57,0,13.15.06,19.72a2.48,2.48,0,0,1-1.33,2.46c-1.57.88-3.09,2-4.92,3.18"/></svg>