<?xml version="1.0" encoding="utf-8"?>
<!-- Generator: Adobe Illustrator 21.0.2, SVG Export Plug-In . SVG Version: 6.00 Build 0)  -->
<svg version="1.1" id="Layer_1" xmlns="http://www.w3.org/2000/svg" xmlns:xlink="http://www.w3.org/1999/xlink" x="0px" y="0px"
	 viewBox="0 0 91.7 26.1" enable-background="new 0 0 91.7 26.1" xml:space="preserve">
<g id="Layer_2">
</g>
<g id="Layer_1_1_">
	<g>
		<g>
			<path fill="#FFFFFF" d="M31.2,8.3c0,1,0.7,1.4,1.6,1.4c0.6,0,1-0.1,1.3-0.2l0.1,0.6c-0.3,0.1-0.8,0.3-1.6,0.3
				c-1.4,0-2.3-0.9-2.3-2.2s0.8-2.3,2.2-2.3c1.6,0,1.9,1.3,1.9,2c0,0.2,0,0.3,0,0.4C34.4,8.3,31.2,8.3,31.2,8.3z M33.8,7.7
				c0-0.4-0.2-1.3-1.2-1.3c-0.9,0-1.3,0.7-1.4,1.3H33.8z"/>
			<path fill="#FFFFFF" d="M40.1,3.9v5.2c0,0.4,0,0.8,0,1.1h-0.7V9.4l0,0c-0.3,0.5-0.9,0.9-1.6,0.9c-1.1,0-2-0.9-2-2.2
				c0-1.4,1-2.3,2.1-2.3c0.8,0,1.3,0.4,1.5,0.7l0,0V3.9C39.4,3.9,40.1,3.9,40.1,3.9z M39.3,7.8c0-0.1,0-0.2,0-0.3
				C39.2,7,38.7,6.6,38,6.6c-0.9,0-1.5,0.7-1.5,1.6S37,9.8,38,9.8c0.6,0,1.1-0.4,1.3-1c0-0.1,0-0.2,0-0.4V7.8z"/>
			<path fill="#FFFFFF" d="M41.9,7.2c0-0.4,0-0.8,0-1.2h0.7v0.7l0,0c0.3-0.4,0.7-0.8,1.5-0.8c0.6,0,1.1,0.4,1.3,0.9l0,0
				c0.2-0.3,0.3-0.4,0.5-0.6C46.2,6,46.5,5.9,47,5.9c0.6,0,1.5,0.3,1.5,2v2.3h-0.7V7.9c0-0.9-0.4-1.4-1-1.4c-0.5,0-0.9,0.4-1,0.7
				c0,0.1-0.1,0.3-0.1,0.4v2.6h-0.8V7.7c0-0.7-0.4-1.2-1-1.2c-0.5,0-0.9,0.4-1.1,0.8c0,0.1-0.1,0.3-0.1,0.4v2.5h-0.8V7.2z"/>
			<path fill="#FFFFFF" d="M52.3,10.3C51,10.3,50,9.4,50,8.1c0-1.4,1-2.3,2.3-2.3c1.4,0,2.3,0.9,2.3,2.2
				C54.6,9.6,53.4,10.3,52.3,10.3L52.3,10.3z M52.3,9.8c0.8,0,1.5-0.6,1.5-1.7c0-0.7-0.4-1.6-1.5-1.6c-1,0-1.5,0.8-1.5,1.7
				S51.5,9.8,52.3,9.8L52.3,9.8z"/>
			<path fill="#FFFFFF" d="M56.1,7.2c0-0.4,0-0.8,0-1.2h0.7v0.8l0,0c0.2-0.4,0.8-0.9,1.5-0.9c0.6,0,1.7,0.3,1.7,1.9v2.4h-0.8V7.8
				c0-0.7-0.3-1.3-1.1-1.3c-0.6,0-1,0.4-1.2,0.8c0,0.1-0.1,0.2-0.1,0.4v2.5H56v-3H56.1z"/>
			<path fill="#FFFFFF" d="M62.8,5v1H64v0.6h-1.2v2.2c0,0.5,0.1,0.9,0.6,0.9c0.2,0,0.4,0,0.5-0.1v0.6c-0.2,0.1-0.4,0.1-0.8,0.1
				s-0.7-0.1-0.9-0.4c-0.2-0.2-0.3-0.7-0.3-1.1V6.5h-0.7V5.9h0.7V5.2L62.8,5z"/>
			<path fill="#FFFFFF" d="M67.3,10.3C66,10.3,65,9.4,65,8.1c0-1.4,1-2.3,2.3-2.3c1.4,0,2.3,0.9,2.3,2.2
				C69.7,9.6,68.5,10.3,67.3,10.3L67.3,10.3z M67.3,9.8c0.8,0,1.5-0.6,1.5-1.7c0-0.7-0.4-1.6-1.5-1.6c-1,0-1.5,0.8-1.5,1.7
				C65.9,9.1,66.5,9.8,67.3,9.8L67.3,9.8z"/>
			<path fill="#FFFFFF" d="M71.2,7.2c0-0.4,0-0.8,0-1.2h0.6v0.8l0,0c0.2-0.4,0.8-0.9,1.5-0.9c0.6,0,1.7,0.3,1.7,1.9v2.4h-0.8V7.8
				c0-0.7-0.3-1.3-1.1-1.3c-0.6,0-1,0.4-1.2,0.8c0,0.1-0.1,0.2-0.1,0.4v2.5H71v-3H71.2z"/>
		</g>
		<g>
			<path fill="#FFFFFF" d="M36.9,19.8c0,0.7,0,1.3,0.1,1.7h-2l-0.1-0.7h-0.1c-0.5,0.5-1.2,0.8-2.1,0.8c-1.5,0-2.3-1-2.3-2.1
				c0-1.7,1.6-2.6,4.2-2.6v-0.1c0-0.3-0.1-0.8-1.3-0.8c-0.7,0-1.5,0.3-2,0.5L31,15.2c0.5-0.3,1.5-0.6,2.8-0.6c2.3,0,3.1,1.3,3.1,2.9
				V19.8z M34.8,18.3c-1.3,0-2.1,0.3-2.1,1c0,0.5,0.3,0.8,0.9,0.8c0.6,0,1.1-0.4,1.2-0.8c0-0.1,0-0.2,0-0.4
				C34.8,18.9,34.8,18.3,34.8,18.3z"/>
			<path fill="#FFFFFF" d="M38.2,17c0-1.1,0-1.7-0.1-2.3H40l0.1,1.3h0.1c0.4-1.1,1.3-1.5,2-1.5c0.2,0,0.3,0,0.5,0v2
				c-0.2,0-0.4-0.1-0.6-0.1c-0.9,0-1.4,0.5-1.5,1.1c0,0.1,0,0.3,0,0.4v3.4h-2.2V17H38.2z"/>
			<path fill="#FFFFFF" d="M46.4,12.9v1.8H48v1.6h-1.6v2.2c0,0.8,0.2,1.2,0.9,1.2c0.3,0,0.5,0,0.7-0.1v1.6c-0.3,0.1-0.8,0.2-1.4,0.2
				c-0.7,0-1.3-0.3-1.7-0.6c-0.4-0.4-0.6-1.1-0.6-2v-2.6h-0.9v-1.6h0.9v-1.3L46.4,12.9z"/>
			<path fill="#FFFFFF" d="M49.4,19.6c0.4,0.3,1.3,0.5,2,0.5s1-0.2,1-0.5s-0.2-0.5-1.1-0.7c-1.5-0.4-2.1-1.2-2.1-2
				c0-1.3,1.1-2.2,2.9-2.2c0.9,0,1.6,0.2,2.1,0.4l-0.4,1.5c-0.3-0.2-1-0.4-1.6-0.4c-0.5,0-0.8,0.2-0.8,0.5s0.3,0.5,1.2,0.7
				c1.4,0.4,1.9,1,2,2.1c0,1.2-1,2.2-3.1,2.2c-1,0-1.8-0.2-2.4-0.5L49.4,19.6z"/>
		</g>
		<g>
			<path fill="#FFFFFF" d="M62.7,21.3c-0.3,0.1-0.8,0.3-1.6,0.3c-1.6,0-2.7-1-2.7-2.5s1.1-2.6,2.9-2.6c0.6,0,1.1,0.2,1.4,0.3
				l-0.2,0.7c-0.3-0.2-0.7-0.3-1.2-0.3c-1.2,0-1.9,0.8-1.9,1.8c0,1.1,0.8,1.8,1.9,1.8c0.6,0,1-0.2,1.3-0.3L62.7,21.3z"/>
			<path fill="#FFFFFF" d="M66.2,21.6c-1.5,0-2.6-1-2.6-2.5c0-1.6,1.2-2.6,2.7-2.6c1.6,0,2.6,1.1,2.6,2.5
				C68.9,20.7,67.5,21.6,66.2,21.6L66.2,21.6z M66.2,20.9c0.9,0,1.7-0.7,1.7-1.9c0-0.9-0.5-1.9-1.7-1.9S64.5,18,64.5,19
				C64.5,20.2,65.3,20.9,66.2,20.9L66.2,20.9z"/>
			<path fill="#FFFFFF" d="M74.7,20.1c0,0.5,0,0.9,0,1.3h-0.8v-0.9l0,0c-0.3,0.4-0.8,1-1.8,1c-0.7,0-1.8-0.4-1.8-2.2v-2.8h0.9v2.7
				c0,1,0.3,1.6,1.2,1.6c0.6,0,1.1-0.4,1.3-0.9c0.1-0.1,0.1-0.3,0.1-0.5v-2.9h0.9C74.7,16.5,74.7,20.1,74.7,20.1z"/>
			<path fill="#FFFFFF" d="M76.5,17.9c0-0.5,0-0.9,0-1.3h0.8v0.9l0,0c0.3-0.5,0.9-1,1.8-1c0.7,0,1.9,0.4,1.9,2.2v2.8h-0.9v-2.7
				c0-0.9-0.4-1.5-1.3-1.5c-0.7,0-1.2,0.5-1.3,0.9c0,0.1-0.1,0.3-0.1,0.4v2.9h-0.9V17.9z"/>
			<path fill="#FFFFFF" d="M86.7,21.3c-0.3,0.1-0.8,0.3-1.6,0.3c-1.6,0-2.7-1-2.7-2.5s1.1-2.6,2.9-2.6c0.6,0,1.1,0.2,1.4,0.3
				l-0.2,0.7c-0.3-0.1-0.6-0.3-1.2-0.3c-1.2,0-1.9,0.8-1.9,1.8c0,1.1,0.8,1.8,1.9,1.8c0.6,0,1-0.2,1.3-0.3L86.7,21.3z"/>
			<path fill="#FFFFFF" d="M88.5,15.7c-0.3,0-0.6-0.3-0.6-0.6s0.2-0.6,0.6-0.6c0.3,0,0.6,0.3,0.6,0.6C89.1,15.5,88.9,15.7,88.5,15.7
				L88.5,15.7z M88.1,21.4v-4.9H89v4.9H88.1z"/>
			<path fill="#FFFFFF" d="M90.8,14.2h0.9v7.2h-0.9V14.2z"/>
		</g>
		<g>
			<path fill="#FFFFFF" d="M2,7.6c-0.2-1,0.5-1.9,1.4-2.1l9.4-2.2L11.5,0H0v13.7L2.9,13L2,7.6z"/>
			<path fill="#FFFFFF" d="M3.5,16.2l-3.4,0.9v8.3h5.2C5.2,25.2,5,24.9,5,24.7L3.5,16.2z"/>
			<polygon fill="#FFFFFF" points="15.5,10.2 13.5,5 4.4,7.4 5.7,12.4 			"/>
			<path fill="#FFFFFF" d="M18.9,11.7c-0.2,0.6-1.1,0.8-1.1,0.8L6.4,15.4l1.8,7.3l17.2-4.5V0H13.5l5.3,10.6
				C18.9,10.9,19,11.3,18.9,11.7z"/>
			<polygon fill="#FFFFFF" points="25.4,25.3 25.4,22 11.5,25.3 			"/>
			<path fill="none" d="M25.4,18.2L8.2,22.7l-1.8-7.3l11.4-2.9c0,0,0.9-0.2,1.1-0.8c0.1-0.4,0.1-0.8,0-1.1L13.6,0h-2l1.3,3.3
				L3.5,5.5c-1,0.2-1.6,1.2-1.4,2.1L3,13l-2.9,0.7V17l3.4-0.9L5,24.5c0,0.3,0.1,0.5,0.3,0.7c0.1,0.2,0.3,0.4,0.5,0.5
				c0.3,0.2,1,0.5,2.1,0.3l3.6-0.9l13.9-3.4V18.2z M4.4,7.4L13.5,5l2,5.1l-9.8,2.2L4.4,7.4z"/>
		</g>
	</g>
</g>
</svg>
