<?xml version="1.0" encoding="utf-8"?>
<!-- Generator: Adobe Illustrator 21.0.2, SVG Export Plug-In . SVG Version: 6.00 Build 0)  -->
<svg version="1.1" id="Layer_1" xmlns="http://www.w3.org/2000/svg" xmlns:xlink="http://www.w3.org/1999/xlink" x="0px" y="0px"
	 viewBox="0 0 388.6 113" enable-background="new 0 0 388.6 113" xml:space="preserve">
<g>
	<path fill="#FFFFFF" d="M140.7,28.5c5.1,0,8.8,0.2,14,0.5c-0.3-1-0.3-1.6-0.3-2c0-0.7,0.1-1.4,0.3-2.3c-3.1,0.1-7.1,0.4-10.8,0.4
		c-2.8,0-8.8-0.2-10.8-0.4c0.3,5.8,0.6,12.3,0.6,19.9c0,9.5-0.1,11.2-0.5,21.2c1.1-0.2,2.1-0.4,3.7-0.4s2.8,0.1,4.1,0.4
		c-0.2-1.3-0.2-1.7-0.2-3.1c-0.1-1.9-0.1-2.7-0.1-8.8v-8c6.1,0,6.8,0,9.9,0.1l3.1,0.1c-0.2-0.8-0.3-1.4-0.3-2c0-0.7,0.1-1.4,0.3-2
		c-2.3,0.1-4.8,0.3-9.1,0.3h-3.9L140.7,28.5L140.7,28.5z"/>
	<path fill="#FFFFFF" d="M154.7,53.4c0,8.3,5.4,13.3,13.4,13.3c8.2,0,13.4-5,13.4-13.3c0-8.7-5.2-13.4-13.4-13.4
		C160.1,40,154.7,45.2,154.7,53.4L154.7,53.4z M161.4,53.4c0-4.4,0.9-11.2,6.7-11.2c5.8,0,6.7,6.6,6.7,11.2s-0.9,11.2-6.7,11.2
		S161.4,57.9,161.4,53.4L161.4,53.4z"/>
	<path fill="#FFFFFF" d="M186.7,57.3c0,0.6,0.1,3.3,1.1,5.1c1.5,2.8,4.4,4.2,7.5,4.2c4.8,0,7.2-3,8.7-4.9c0,2.3,0,2.4-0.2,4.3
		c1.2-0.2,2-0.3,3.1-0.3c1,0,1.9,0.2,3.4,0.3c-0.3-2.9-0.4-4.6-0.4-11.4c0-4.8,0.2-9.6,0.5-14.4c-1.8,0.3-2.8,0.3-3.6,0.3
		c-1,0-2.1-0.2-3.1-0.3c0.4,3.3,0.4,9,0.4,12.7c0,2-0.2,5.2-0.9,6.6c-0.4,0.7-1.7,3.1-5,3.1c-2.1,0-4.1-1.3-4.7-3.5
		c-0.3-1.2-0.4-5.7-0.4-7.2c0-2.4,0.2-9.2,0.6-11.7c-1.2,0.2-2.3,0.3-3.5,0.3c-1.1,0-2.2-0.1-3.4-0.3c0.3,2.4,0.3,3.4,0.3,5.6
		C186.9,49.8,186.7,53.6,186.7,57.3L186.7,57.3z"/>
	<path fill="#FFFFFF" d="M239.7,49.2c0-5.7-3.1-9.1-8.9-9.1c-4.1,0-6.1,1.8-8.3,4.7c0-2.7,0-2.9,0.3-4.4c-0.9,0.2-1.5,0.3-2.9,0.3
		c-1.9,0-3-0.2-3.5-0.3c0.4,4,0.4,4.6,0.4,11.4c0,6.4-0.1,7.2-0.5,14.3c1.1-0.2,2.3-0.3,3.4-0.3c0.5,0,2.8,0.3,3.4,0.3
		c-0.3-3.6-0.4-7.2-0.4-12.1c0-1.8,0.2-5.5,0.9-7.1c0.9-1.8,2.7-3.1,4.8-3.1c2.3,0,4.3,1,5,3.5c0.4,1.4,0.4,5.8,0.4,8.6
		c0,2.5-0.2,7.6-0.6,10.1c1-0.1,2.3-0.3,3.5-0.3s2.3,0.2,3.5,0.3c-0.2-1.2-0.4-3.9-0.4-6.6C239.4,56.9,239.7,50.7,239.7,49.2
		L239.7,49.2z"/>
	<path fill="#FFFFFF" d="M264.4,66.1c0.9-0.1,1.8-0.3,3.1-0.3s2.5,0.2,3.1,0.3c-0.5-3.2-0.6-19.7-0.6-20.5c0-6.4,0.2-12.8,0.6-19.2
		c-0.9,0.2-1.9,0.3-3.1,0.3c-1.6,0-2.6-0.1-3.8-0.3c0.5,4.4,0.6,10.3,0.6,17.2c-1.8-1.8-3.7-3.5-7.7-3.5c-6.6,0-12,4.7-12,13.7
		c0,7.2,4.7,13.1,11.7,13.1c4.2,0,6.9-2.6,8.1-4.4L264.4,66.1L264.4,66.1z M257.8,63.7c-5.5,0-6.3-6.8-6.3-10.9s1.2-9.7,6.5-9.7
		c5.1,0,6.4,5.1,6.4,10.2C264.4,60.3,261.7,63.7,257.8,63.7L257.8,63.7z"/>
	<path fill="#FFFFFF" d="M284.1,52c-5,1.3-8.6,2.3-8.6,8.2c0,2.1,1.2,6.5,7.4,6.5c2.8,0,5.5-1.4,7.2-3.6c0.6,1.7,1.3,3.3,4.4,3.3
		c1.5,0,3.2-0.6,4.6-1.2c-0.1-0.3-0.2-0.6-0.2-1c0-0.3,0.1-0.6,0.2-1c-0.5,0.2-1,0.4-1.5,0.4c-1.8,0-1.9-1.3-1.9-6.5
		c0-1.8,0.2-7.2,0.2-9.2c0-5.4-4-8-9.7-8c-2.8,0-4.4,0.5-8.5,3c0.1,0.5,0.1,1,0.1,1.4c0,0.9-0.1,1.6-0.3,2.6
		c0.3-0.1,0.6-0.1,0.9-0.1s0.5,0.1,0.8,0.1c0.3-1.3,1.7-3.8,5.8-3.8c2.9,0,5.2,1.6,5.2,5.7c0,0.4-0.1,0.8-0.2,1.1
		c-0.3,0.5-0.7,0.6-3.9,1.5L284.1,52L284.1,52z M289.8,58.4c0,2.8-1.9,5.1-4.8,5.1c-2.1,0-3.5-1.8-3.5-4.6c0-3.9,2.2-4.4,8.3-6.1
		V58.4L289.8,58.4z"/>
	<path fill="#FFFFFF" d="M310.3,31c-1,0.9-3.1,2.4-6.1,3.7c0.1,2.5,0.1,4.6,0.1,6.1h-2.4c-0.7,0-1.4-0.2-1.8-0.2
		c0.1,0.6,0.2,1.1,0.2,1.7c0,0.5-0.1,0.9-0.2,1.2c0.6-0.1,1.5-0.2,2.5-0.2h1.6c0,4.3-0.3,13.7-0.3,16c0,2.1,0.4,4.6,2.2,6.1
		c1.2,1,3.3,1.4,4.8,1.4c1.8,0,4.5-0.7,6.1-1.6c-0.1-0.4-0.2-0.7-0.2-1.2c0-0.4,0.2-1,0.2-1.3c-1.1,0.8-2,1.1-3.2,1.1
		c-3.6,0-3.9-2.3-3.9-10.2c0-2.2,0.2-8,0.2-10.3c2.9,0,3.5,0,5.8,0.2c-0.1-0.5-0.2-1-0.2-1.6c0-0.5,0.1-0.9,0.2-1.3l-2,0.2
		c-1,0.1-1.3,0.1-3.7,0.1c0.2-8,0.2-8.9,0.4-9.7L310.3,31L310.3,31z"/>
	<path fill="#FFFFFF" d="M320.6,66.1c1.2-0.2,2.4-0.3,3.6-0.3c1.2,0,2.1,0.2,3.1,0.3c0-0.6-0.2-3.7-0.2-4.4
		c-0.1-1.9-0.2-7.4-0.2-9.7c0-1.9,0.2-6.9,0.3-9.2l0.1-2.4c-0.9,0.2-1.7,0.3-3.3,0.3s-2.5-0.2-3.6-0.3c0.4,3.7,0.5,9.5,0.5,13.3
		c0,2-0.1,3.9-0.2,6.6L320.6,66.1L320.6,66.1z M323.9,35.5c1.9,0,3.7-1.7,3.7-3.7s-1.8-3.7-3.7-3.7c-2,0-3.7,1.8-3.7,3.7
		C320.2,33.8,322,35.5,323.9,35.5L323.9,35.5z"/>
	<path fill="#FFFFFF" d="M332.8,53.4c0,8.3,5.4,13.3,13.4,13.3c8.2,0,13.4-5,13.4-13.3c0-8.7-5.2-13.4-13.4-13.4
		C338.2,40,332.8,45.2,332.8,53.4L332.8,53.4z M339.5,53.4c0-4.4,0.9-11.2,6.7-11.2s6.7,6.6,6.7,11.2s-0.9,11.2-6.7,11.2
		S339.5,57.9,339.5,53.4L339.5,53.4z"/>
	<path fill="#FFFFFF" d="M388.1,49.2c0-5.7-3.1-9.1-8.9-9.1c-4.1,0-6.1,1.8-8.3,4.7c0-2.7,0-2.9,0.3-4.4c-0.9,0.2-1.5,0.3-2.9,0.3
		c-1.9,0-3-0.2-3.5-0.3c0.4,4,0.4,4.6,0.4,11.4c0,6.4-0.1,7.2-0.5,14.3c1.1-0.2,2.3-0.3,3.4-0.3c0.5,0,2.8,0.3,3.4,0.3
		c-0.3-3.6-0.4-7.2-0.4-12.1c0-1.8,0.2-5.5,0.9-7.1c0.9-1.8,2.7-3.1,4.8-3.1c2.3,0,4.3,1,5,3.5c0.4,1.4,0.4,5.8,0.4,8.6
		c0,2.5-0.2,7.6-0.6,10.1c1-0.1,2.3-0.3,3.5-0.3s2.3,0.2,3.5,0.3c-0.2-1.2-0.4-3.9-0.4-6.6C387.9,56.9,388.1,50.7,388.1,49.2
		L388.1,49.2z"/>
	<path fill="#FFFFFF" d="M172.2,75.5c0-0.4,0-1,0-1.5c0-0.4,0.1-1,0.2-1.4c-0.6-0.1-0.7-0.1-0.9-0.1c-2.9,0-4.3,2.6-4.6,3.2
		c-1,1.7-1,2.8-1.3,4.8c-1.8,0-0.8,0-2.2-0.1c0,0.3,0.1,0.6,0.1,0.8c0,0.3,0,0.5-0.1,0.8c0.3,0,0.7-0.1,1.2-0.1h0.9
		c0,0.6,0.1,2.9,0.1,4.3s-0.1,2.8-0.1,5.1c0,1.7-0.1,2-0.2,2.9c0.5-0.1,1.2-0.2,1.9-0.2c0.6,0,1.3,0.1,1.8,0.2
		c-0.2-2.5-0.3-10-0.3-10.7v-1.6c2.2,0,2.5,0,3,0.1c-0.1-0.2-0.1-0.4-0.1-0.8c0-0.3,0.1-0.6,0.1-0.8l-1.1,0.1c-0.5,0-0.7,0-2,0
		c-0.3-0.8-0.8-2.6-0.8-3.4c0-1.8,1.4-1.9,1.9-1.9c0.3,0,1.4,0.1,2.1,0.6L172.2,75.5L172.2,75.5z"/>
	<path fill="#FFFFFF" d="M172.5,87.1c0,4.5,2.9,7.2,7.3,7.2c4.5,0,7.3-2.7,7.3-7.2c0-4.7-2.8-7.2-7.3-7.2
		C175.4,79.9,172.5,82.7,172.5,87.1L172.5,87.1z M176.1,87.1c0-2.4,0.5-6.1,3.7-6.1s3.7,3.6,3.7,6.1s-0.5,6.1-3.7,6.1
		S176.1,89.6,176.1,87.1L176.1,87.1z"/>
	<path fill="#FFFFFF" d="M189.8,94c0.9-0.1,1.5-0.2,2-0.2c0.6,0,1.3,0.1,1.7,0.2c-0.2-1.8-0.3-4.6-0.3-6.5c0-2,0.1-2.4,0.3-2.9
		c0.3-0.8,1.3-1.6,2.6-1.6c0.1,0,1.2,0,1.7,0.4l0.2-0.1c-0.1-0.3-0.1-0.8-0.1-1.2c0-0.4,0-1.7,0.3-2.1c-0.2-0.1-0.5-0.1-0.8-0.1
		c-2.3,0-3.5,1.9-4.3,3.2c0-1.4,0-1.6,0.2-3c-0.5,0.1-1,0.2-1.7,0.2c-0.8,0-1.2-0.1-1.9-0.2c0.1,2.6,0.2,3.3,0.2,6.4
		c0,1.1,0,3.4-0.1,4.6L189.8,94L189.8,94z"/>
	<path fill="#FFFFFF" d="M211.6,75c-0.5,0.5-1.7,1.3-3.3,2c0.1,1.3,0.1,2.5,0.1,3.3h-1.3c-0.4,0-0.8-0.1-1-0.1
		c0.1,0.3,0.1,0.6,0.1,0.9s-0.1,0.5-0.1,0.6c0.3,0,0.8-0.1,1.4-0.1h0.9c0,2.3-0.2,7.4-0.2,8.7c0,1.2,0.2,2.5,1.2,3.3
		c0.7,0.5,1.8,0.8,2.6,0.8c1,0,2.4-0.4,3.3-0.8c-0.1-0.2-0.1-0.4-0.1-0.7c0-0.2,0.1-0.6,0.1-0.7c-0.6,0.4-1.1,0.6-1.7,0.6
		c-1.9,0-2.1-1.2-2.1-5.5c0-1.2,0.1-4.3,0.1-5.6c1.6,0,1.9,0,3.2,0.1c-0.1-0.3-0.1-0.6-0.1-0.9s0-0.5,0.1-0.7l-1.1,0.1
		c-0.5,0-0.7,0-2,0c0.1-4.3,0.1-4.8,0.2-5.2L211.6,75L211.6,75z"/>
	<path fill="#FFFFFF" d="M220.7,72.5c-0.6,0.1-1,0.2-1.7,0.2c-0.8,0-1.4-0.1-2-0.2c0.1,1.5,0.2,3.3,0.2,4.5v5.7
		c0,6.1,0,7.5-0.2,11.4c0.3,0,1.2-0.2,1.8-0.2c0.6,0,1.2,0.1,1.8,0.2c-0.1-2.6-0.1-2.9-0.1-6.7c0-2,0.1-2.7,0.3-3.4
		c0.5-1.4,1.8-1.9,2.9-1.9c1.2,0,2.2,0.6,2.5,1.8c0.2,0.7,0.2,1.4,0.2,4.1c0,2-0.1,4.4-0.3,6.1c0.4,0,1.3-0.2,1.9-0.2
		s1.2,0.1,1.8,0.2c-0.1-1.2-0.2-3.9-0.2-5.5c0-0.9,0.1-2.5,0.1-3.1c0-1.3,0-2.5-0.7-3.5c-0.9-1.4-2.5-1.9-4-1.9
		c-1.7,0-3.3,0.6-4.5,2.4c0-3.6,0-5.6,0.2-8.9L220.7,72.5L220.7,72.5z"/>
	<path fill="#FFFFFF" d="M245.2,87.2c0.1-2.2-0.3-3.7-0.8-4.6C243,80,240,80,238.9,80c-3.4,0-6.7,2.2-6.7,7c0,1,0,3.6,1.9,5.5
		c1.6,1.6,4.2,1.9,5.2,1.9c2.8,0,4.7-1.2,4.9-1.5l0.3-1.2c0.1-0.2,0.1-0.4,0.2-0.6l-0.3-0.2c-1,1.1-2.8,1.8-4.1,1.8
		c-4.6,0-4.6-4.4-4.6-5.5L245.2,87.2L245.2,87.2z M235.7,85.8c0.1-1.1,0.2-4.7,3.2-4.7c2.9,0,2.9,3.3,2.9,4.7H235.7L235.7,85.8z"/>
	<path fill="#FFFFFF" d="M178,31.5c0.5,0,1.3-0.2,2.1-0.2c0.8,0,1.8,0.1,2.3,0.2c-1.3-2.8-3.2-7.2-4.3-9.7c-1-2.4-2.8-6.5-4.2-10.5
		c-0.3,0.1-0.6,0.1-0.9,0.1s-0.6-0.1-1-0.1c-0.7,2.4-2.4,6.1-5.3,12.7l-3.4,7.5c0.4-0.1,0.8-0.2,1.3-0.2s1,0.1,1.4,0.2
		c0.5-1.7,1.4-4.1,2.3-6.3c1.2-0.1,2.3-0.1,3.5-0.1s2.5,0.1,3.7,0.1l1.2,3.1L178,31.5L178,31.5z M174.7,23.4
		c-0.9,0.1-1.8,0.1-2.7,0.1c-1,0-2-0.1-3-0.1l3-7.1L174.7,23.4L174.7,23.4z"/>
	<path fill="#FFFFFF" d="M183.8,10c0.2,2.3,0.3,4.6,0.3,9.9c0,0.7,0,9.3-0.3,11.5c1-0.1,1.5-0.2,2-0.2c0.6,0,1.2,0.1,1.8,0.2
		c-0.3-3.3-0.3-10.2-0.3-10.8c0-3,0-7.5,0.3-10.7c-0.6,0.1-0.9,0.2-1.9,0.2C184.9,10.2,184.5,10.1,183.8,10L183.8,10z"/>
	<path fill="#FFFFFF" d="M204.7,24.2c0-4.8-3.2-6.9-6.1-6.9c-1.9,0-3.3,1-4.4,2.5c0.1-5.9,0.1-6.6,0.2-9.8c-0.5,0.1-1,0.2-1.8,0.2
		s-1.4-0.1-1.9-0.2c0.3,5.4,0.3,7.2,0.3,11c0,5.8-0.1,7.5-0.3,10.5h1c0.8-1,1-1.1,1.8-1.7c1.2,1.7,2.8,2,4.5,2
		C202.3,31.8,204.7,28.1,204.7,24.2L204.7,24.2z M197.6,30.5c-3.3,0-3.5-3.9-3.5-5.7c0-2.3,0.5-5.7,3.5-5.7c3.2,0,3.5,3.5,3.5,5.4
		C201.1,26.9,200.5,30.5,197.6,30.5L197.6,30.5z"/>
	<path fill="#FFFFFF" d="M220.1,24.6c0.1-2.2-0.3-3.7-0.8-4.6c-1.4-2.6-4.4-2.6-5.5-2.6c-3.4,0-6.7,2.2-6.7,7c0,1,0,3.6,1.9,5.5
		c1.6,1.6,4.2,1.9,5.2,1.9c2.8,0,4.7-1.2,4.9-1.5l0.3-1.2c0.1-0.2,0.1-0.4,0.2-0.6l-0.3-0.2c-1,1.1-2.8,1.8-4.1,1.8
		c-4.6,0-4.6-4.4-4.6-5.5L220.1,24.6L220.1,24.6z M210.6,23.2c0.1-1.1,0.2-4.7,3.2-4.7c2.9,0,2.9,3.3,2.9,4.7H210.6L210.6,23.2z"/>
	<path fill="#FFFFFF" d="M223.1,31.5c0.9-0.1,1.5-0.2,2-0.2c0.6,0,1.3,0.1,1.7,0.2c-0.2-1.8-0.3-4.6-0.3-6.5c0-2,0.1-2.4,0.3-2.9
		c0.3-0.8,1.3-1.6,2.6-1.6c0.1,0,1.2,0,1.7,0.4l0.2-0.1c-0.1-0.3-0.1-0.8-0.1-1.2c0-0.4,0-1.7,0.3-2.1c-0.2-0.1-0.5-0.1-0.8-0.1
		c-2.3,0-3.5,1.9-4.3,3.2c0-1.4,0-1.6,0.2-3c-0.5,0.1-1,0.2-1.7,0.2c-0.8,0-1.2-0.1-1.9-0.2c0.1,2.6,0.2,3.3,0.2,6.4
		c0,1.1,0,3.4-0.1,4.6L223.1,31.5L223.1,31.5z"/>
	<path fill="#FFFFFF" d="M238.1,12.5c-0.5,0.5-1.7,1.3-3.3,2c0.1,1.3,0.1,2.5,0.1,3.3h-1.3c-0.4,0-0.8-0.1-1-0.1
		c0.1,0.3,0.1,0.6,0.1,0.9s-0.1,0.5-0.1,0.6c0.3,0,0.8-0.1,1.4-0.1h0.9c0,2.3-0.2,7.4-0.2,8.7c0,1.2,0.2,2.5,1.2,3.3
		c0.7,0.5,1.8,0.8,2.6,0.8c1,0,2.4-0.4,3.3-0.8c-0.1-0.2-0.1-0.4-0.1-0.7c0-0.2,0.1-0.6,0.1-0.7c-0.6,0.4-1.1,0.6-1.7,0.6
		c-1.9,0-2.1-1.2-2.1-5.5c0-1.2,0.1-4.3,0.1-5.6c1.6,0,1.9,0,3.2,0.1c-0.1-0.3-0.1-0.6-0.1-0.9s0-0.5,0.1-0.7l-1.1,0.1
		c-0.5,0-0.7,0-2,0c0.1-4.3,0.1-4.8,0.2-5.2L238.1,12.5L238.1,12.5z"/>
	<path fill="#FFFFFF" d="M247.4,23.8c-2.7,0.7-4.7,1.2-4.7,4.5c0,1.1,0.6,3.5,4,3.5c1.5,0,3-0.8,3.9-2c0.3,0.9,0.7,1.8,2.4,1.8
		c0.8,0,1.7-0.3,2.5-0.6c-0.1-0.2-0.1-0.3-0.1-0.5s0.1-0.3,0.1-0.5c-0.3,0.1-0.5,0.2-0.8,0.2c-1,0-1-0.7-1-3.5c0-1,0.1-3.9,0.1-5
		c0-2.9-2.1-4.3-5.3-4.3c-1.5,0-2.4,0.3-4.6,1.6c0,0.3,0,0.5,0,0.8c0,0.5-0.1,0.9-0.1,1.4c0.1,0,0.3-0.1,0.5-0.1
		c0.1,0,0.3,0,0.4,0.1c0.2-0.7,0.9-2.1,3.1-2.1c1.6,0,2.8,0.9,2.8,3.1c0,0.2,0,0.4-0.1,0.6c-0.1,0.3-0.4,0.3-2.1,0.8L247.4,23.8
		L247.4,23.8z M250.5,27.3c0,1.5-1,2.8-2.6,2.8c-1.2,0-1.9-1-1.9-2.5c0-2.1,1.2-2.4,4.5-3.3V27.3L250.5,27.3z"/>
	<path fill="#FFFFFF" d="M273.8,108.7c1-0.1,2.5-0.3,4-0.3s3.4,0.3,4.2,0.3c-2.4-5.2-5.9-13.3-8-17.9c-1.9-4.5-5.1-12-7.7-19.3
		c-0.6,0.2-1.1,0.3-1.7,0.3s-1.2-0.1-1.8-0.3c-1.3,4.4-4.4,11.4-9.8,23.5l-6.2,13.8c0.7-0.1,1.5-0.3,2.4-0.3s1.9,0.2,2.6,0.3
		c0.9-3.1,2.6-7.5,4.3-11.6c2.1-0.1,4.3-0.2,6.4-0.2c2.3,0,4.6,0.1,6.9,0.2l2.2,5.7L273.8,108.7L273.8,108.7z M267.7,93.8
		c-1.7,0.1-3.3,0.2-4.9,0.2c-1.9,0-3.7-0.2-5.6-0.2l5.5-13.2L267.7,93.8L267.7,93.8z"/>
	<path fill="#FFFFFF" d="M283.8,108.7c1.6-0.2,2.8-0.3,3.7-0.3c1.1,0,2.5,0.3,3.1,0.3c-0.3-3.3-0.5-8.5-0.5-11.9
		c0-3.7,0.3-4.5,0.6-5.3c0.6-1.4,2.4-2.9,4.8-2.9c0.3,0,2.2,0,3.2,0.7l0.4-0.3c-0.2-0.6-0.3-1.4-0.3-2.3c0-0.7,0.1-3.1,0.5-3.9
		c-0.4-0.1-0.9-0.2-1.4-0.2c-4.3,0-6.4,3.6-7.9,5.9c0-2.6,0-2.9,0.3-5.6c-0.9,0.2-1.8,0.3-3.1,0.3c-1.4,0-2.3-0.1-3.5-0.3
		c0.3,4.7,0.4,6.1,0.4,11.9c0,2.1,0,6.2-0.1,8.6L283.8,108.7L283.8,108.7z"/>
	<path fill="#FFFFFF" d="M310.7,73.6c-1,0.9-3.1,2.4-6.1,3.7c0.1,2.5,0.1,4.6,0.1,6.1h-2.4c-0.7,0-1.4-0.2-1.8-0.2
		c0.1,0.6,0.2,1.1,0.2,1.7c0,0.5-0.1,0.9-0.2,1.2c0.6-0.1,1.5-0.2,2.5-0.2h1.6c0,4.3-0.3,13.7-0.3,16c0,2.1,0.4,4.6,2.2,6.1
		c1.2,1,3.3,1.4,4.8,1.4c1.8,0,4.5-0.8,6.1-1.6c-0.1-0.4-0.2-0.7-0.2-1.2c0-0.4,0.2-1,0.2-1.3c-1.1,0.7-2,1.1-3.2,1.1
		c-3.6,0-3.9-2.3-3.9-10.2c0-2.2,0.2-8,0.2-10.3c2.9,0,3.5,0,5.8,0.2c-0.1-0.5-0.2-1-0.2-1.6c0-0.5,0.1-0.9,0.2-1.3l-2,0.2
		c-1,0.1-1.3,0.1-3.7,0.1c0.2-8,0.2-8.9,0.4-9.7L310.7,73.6L310.7,73.6z"/>
	<path fill="#FFFFFF" d="M319.6,102.7c-0.1,0.6-0.1,1.6-0.4,2.5c-0.2,0.8-0.6,1.8-0.8,2.2c2.7,1.2,4.9,2.1,7.9,2.1
		c7.6,0,10.2-5.5,10.2-8.8c0-5.2-3.9-6.4-7.2-7.6c-4-1.3-5.8-1.9-5.8-4.3c0-2.2,1.8-3.5,4.3-3.5c3.3,0,4.3,2,5.1,3.7h0.9
		c0.1-1.2,0.3-2.7,1.3-4.8c-1.6-0.6-4-1.6-7.2-1.6c-5.9,0-9.3,3.5-9.3,8.2c0,4.9,3.2,6.3,4.2,6.8c0.4,0.2,2.9,1.1,3.6,1.3
		c2.5,1,4.6,1.7,4.6,3.9c0,1.9-1.3,3.8-4,3.8c-5,0-6.1-2.9-6.6-4.1h-0.8V102.7z"/>
	<path fill="#FFFFFF" d="M38.9,28.4c-3.3,0.1-6.5,2.4-9.5,7.1s-4.8,10-5.3,15.9c-0.2,2.8,0,4.7,0.7,5.9c0.7,1.1,1.9,1.7,3.4,1.6
		c1.6,0,3.5-0.9,5.5-2.6s4-4.5,5.8-8.4s2.9-8.1,3.3-12.5c0.2-2.6,0-4.4-0.7-5.5C41.4,28.9,40.3,28.4,38.9,28.4L38.9,28.4z M18,15.1
		C28.1,5.7,41.6,0,56.5,0C68,0,78.7,3.4,87.6,9.3c-1.7-0.3-3.3-0.5-4.3-0.5c-10.2,0-18,5.2-23.7,14.8c-0.4,0.6-0.7,1.3-1.1,1.9
		c-3.5,7-9.6,24.8-10.5,27.1c-0.8,2-1.1,3.2-1.1,3.8c0,0.4,0,0.7,0.2,0.9c0.2,0.2,0.4,0.3,0.8,0.3c1.4,0,3.3-1.6,5.6-4.9h3.9
		c-4.9,7.2-9.8,10.9-14.7,11c-1.9,0-3.3-0.5-4.3-1.6c-0.9-1.2-1.4-2.9-1.4-5.2c-2.3,2.6-4.4,4.5-6.5,5.6c-2,1.1-4.1,1.6-6.2,1.7
		c-3.7,0.1-6.6-1.2-8.8-3.8c-2.2-2.6-3-6.2-2.6-10.8c0.4-4.4,1.8-8.7,4.3-12.7c2.5-4.1,5.6-7.3,9.1-9.6c3.6-2.3,7.1-3.5,10.6-3.6
		c2.4,0,4.3,0.5,5.7,1.6s2.3,2.9,2.8,5.3l2.7-5.9l8.6-0.8c-5.4-7.6-14.3-12.5-24.3-12.5C27.3,11.4,22.3,12.7,18,15.1L18,15.1z
		 M98.2,94.6C87.8,105.9,73,113,56.5,113c-10,0-19.4-2.6-27.5-7.2c10.2-1.4,16.3-10.7,21.2-24.2l11.4-28.9h21.1l3.6,9.7H65.9
		c-8,18.3-16.5,37.4-16.5,37.4c1.3-0.2,3.6-0.6,5.2-0.6c1.5,0,4.3,0.4,5.5,0.6c0.1,0,11.2-28.2,11.2-28.2h18.4L98.2,94.6L98.2,94.6z
		 M97.6,17.7c9.6,10.1,15.4,23.8,15.4,38.8c0,8.8-2,17.2-5.7,24.7c-7.2-16.6-17.8-41.5-21-50.7C85.3,30.8,84,31,83,31
		c-1.1,0-2.7-0.2-3.8-0.5c-0.5,1.8-2.4,6.5-5,12.7h-8.9l2.1-5.8l3.1-8.5c3.3-9,7.9-16,14.8-16c7,0,8.9,7,8.9,13.2L97.6,17.7
		L97.6,17.7z M0,56.5c0-6.2,1-12.1,2.8-17.7c-0.1,0.8-0.1,1.6-0.1,2.4C2.7,57.7,16,71,32.5,71c3.3,0,6.4-0.5,9.3-1.5l-4.6,12.4
		c-4.5,12.4-8.1,18.8-14.8,19.7C8.8,91.3,0,74.9,0,56.5L0,56.5z"/>
</g>
</svg>
