<?xml version="1.0" encoding="utf-8"?>
<!-- Generator: Adobe Illustrator 21.0.2, SVG Export Plug-In . SVG Version: 6.00 Build 0)  -->
<svg version="1.1" id="Layer_1" xmlns="http://www.w3.org/2000/svg" xmlns:xlink="http://www.w3.org/1999/xlink" x="0px" y="0px"
	 viewBox="0 0 575.9 135.4" enable-background="new 0 0 575.9 135.4" xml:space="preserve">
<g>
	<path fill="#FFFFFF" d="M388,55.8v46h-19.5V57.9c0-4-3.2-7.2-7.2-7.2s-7.2,3.2-7.2,7.2v43.9h-19.5V43.7c6.8-6.8,18-12,26.7-12l0,0
		C376.1,31.7,388,41,388,55.8z M575.9,101.8v-46c0-14.8-12-24.1-26.7-24.1l0,0c-8.7,0-20,5.2-26.7,12v58.1H542V57.9
		c0-4,3.2-7.2,7.2-7.2s7.2,3.2,7.2,7.2v43.9L575.9,101.8L575.9,101.8z M220.4,31.7L220.4,31.7c-6.6,0-13.5,2.1-17.1,5.7
		c-3.6-3.6-10.9-5.7-17.1-5.7c-8.8,0-20,5.2-26.7,12v58.1h19.3V57.9c0-4,3.4-7.2,7.4-7.2s7.4,3.2,7.4,7.2v43.9l0,0h19.3h0.2V57.9
		c0-4,3.2-7.2,7.2-7.2l0,0c4,0,7.2,3.2,7.2,7.2v43.9H247v-46C247.1,41,235.1,31.7,220.4,31.7z M326.8,67.6
		c0,19.8-16.1,35.9-35.9,35.9S255,87.4,255,67.6s16.1-35.9,35.9-35.9C310.7,31.7,326.8,47.8,326.8,67.6z M307.2,67.6
		c0-9-7.3-16.3-16.3-16.3s-16.3,7.3-16.3,16.3s7.3,16.3,16.3,16.3C299.9,83.9,307.2,76.6,307.2,67.6z M514.4,67.6
		c0,19.8-16.1,35.9-35.9,35.9c-19.8,0-35.9-16.1-35.9-35.9s16.1-35.9,35.9-35.9C498.4,31.7,514.4,47.8,514.4,67.6z M494.9,67.6
		c0-9-7.3-16.3-16.3-16.3s-16.3,7.3-16.3,16.3s7.3,16.3,16.3,16.3C487.6,83.9,494.9,76.6,494.9,67.6z M426.7,15.6h-5.1
		c-6.3,10.3-15,19-25.1,25.5h-0.1v12.4h10.9v33c0,6.2,2.1,11.4,5.6,15.3h24.4c-4.4-3.3-10.4-9.9-10.4-20.2V53.5h13.4V36h-13.6
		L426.7,15.6L426.7,15.6z M24.4,77.4h38.8V52.1c-11.3,4.1-24,5.8-38.7,5.8V58c4.4-19.7,22.1-34.6,43.2-34.6c8.9,0,17.3,2.7,24.2,7.3
		V4.5C84.4,1.6,76.2,0,67.7,0C30.4,0,0,30.4,0,67.7s30.4,67.7,67.7,67.7c8.5,0,16.7-1.6,24.2-4.5v-26.2c-7,4.6-15.3,7.3-24.2,7.3
		C46.5,111.8,28.8,97.1,24.4,77.4z M130.1,4.6h19.5v73.2c0,0.1-0.5,2.7-2.9,7.1c-6.1,11.1-17.9,18.6-31.5,18.6
		c-19.8,0-35.9-16.1-35.9-35.9s16.1-35.9,35.9-35.9c5.3,0,10.3,1.2,14.9,3.3V4.6z M131.6,67.6c0-9-7.3-16.3-16.3-16.3
		S99,58.6,99,67.6s7.3,16.3,16.3,16.3C124.3,83.9,131.6,76.6,131.6,67.6z"/>
</g>
</svg>
