<?xml version="1.0" encoding="utf-8"?>
<!-- Generator: Adobe Illustrator 21.0.2, SVG Export Plug-In . SVG Version: 6.00 Build 0)  -->
<svg version="1.1" id="Layer_1" xmlns="http://www.w3.org/2000/svg" xmlns:xlink="http://www.w3.org/1999/xlink" x="0px" y="0px"
	 viewBox="0 0 254.9 96.1" enable-background="new 0 0 254.9 96.1" xml:space="preserve">
<g>
	<path fill="none" d="M136.3,42.1c-0.4-0.8-1.9-1-5,1.9c-2.4,2.2-4.1,5.7-4.7,8.8C133.6,49.6,137.2,43.7,136.3,42.1z"/>
	<path fill="none" d="M100.1,60.4c0,0.5-0.2,0.9-0.5,1.2c0.6,0.1,1.2,0.1,2.1,0c1.5-0.2,3-1.2,4.2-2.6c-2.4,0.2-4.5,0.4-5.8,0.4
		C100.1,59.8,100.1,60.1,100.1,60.4z"/>
	<path fill="none" d="M110,41.1c-4.8-1.7-8.7,8.7-9.6,16.1c2.6-0.2,5.1-0.4,7.4-0.6C111.3,50.7,112.8,42,110,41.1z"/>
	<path fill="none" d="M46.9,55.5c5.9,3,10.3,4.8,13.5,6c-0.7-2.6-1.3-6.2-1.9-11.1C54.2,52.6,50.1,54.3,46.9,55.5z"/>
	<path fill="#FFFFFF" d="M254.9,36.5v23.1h-16.8c4.6-3.2,7.1-8,6.9-12.9c-0.3-5.8-5.4-6.7-6.1-5.1c-0.2,0.6,1.9,0.4,1.9,4.4
		c0,4.7-3.4,10.5-8.4,13.5h-0.6V36.4h23.1V36.5z"/>
	<path fill="#FFFFFF" d="M93.2,68c-2.5-0.4-5.7-3.8-6.7-9.3c-1.8-10-0.7-19.9,2.2-34.6c0.6-2.8,2.5-7.6-3.6-8.5
		c-1.9-0.3-0.9,0.7-1.5,3.2c-2.3,11-11.3,18.9-20.3,24.2c-0.9-12.6-0.6-26.5,1.8-35.1c2-7.2,4.4-5.9,1.4-7.4
		c-3.1-1.6-6.4,0.5-9.1,5.9C54.7,11.8,42.3,41,22.5,60.7C12.4,70.8,3.2,65.6,1.4,64c-1.5-1.3-2,0.7-0.2,2.7
		c8.2,8.8,20.2,3.8,24.5-0.6c12.1-12,26.1-38,31.7-49c-0.5,6.2-0.7,16.6,0.5,28.8c-6.1,3-11.6,4.7-14.2,5.4
		c-2.8,0.7-4.5,1.9-4.6,3.2c-0.1,1.4,1.8,2.6,4.6,3.9c4.9,2.3,19.1,9,22.6,11.1c3,1.7,4.5,0.4,5.4-1.5c1.2-2.5-2-3.9-5.1-4.8
		c-1.2-4.1-2.1-9.7-2.8-15.8C71,42.9,78.1,37,82.3,29.6c-1,6.2-3.7,27.2,3,36.1c1.5,2,4.7,4.1,7.9,3.8c1.5-0.1,2.2-1.1,2.1-1.4
		C95,67.7,94.1,68.2,93.2,68z M46.9,55.5c3.2-1.2,7.3-2.9,11.6-5.1c0.6,4.9,1.2,8.5,1.9,11.1C57.2,60.3,52.7,58.5,46.9,55.5z"/>
	<path fill="#FFFFFF" d="M225.3,61.7c-9.5,0-11.9-7.4-12.4-11c-0.3-2.4,0.2-5.9-4-5.5c-2.9,0.3-5.6,6-9.3,10.9
		c-3.2,4.1-4.6,3.7-3.9,0.2c0.9-4.4,4.6-14.9,8.9-15.6c2-0.4,2.7,3.1,3.6,0.9c0.9-2.2,0.1-6.8-4.3-6.8c-3.1,0-6.8,3.3-9.8,7
		c-2.6,3.2-16,22.8-21.5,18.6c-2.6-2-2.4-10-0.8-19.5c6.6-2.6,12.1-1.7,15.3-0.2c1.5,0.7,1.8,0.6,1.1-1.1c-1-2.5-6.3-6.4-14.6-4.6
		c-0.2,0-0.4,0.1-0.6,0.1c0.7-3.1,1.5-6.2,2.3-9.3c0.8-2.8,3.1-7.6-2.9-8.5c-1.9-0.3-1.1,0.6-1.7,3.2c-1.2,4.7-2.6,10.9-3.7,17.1
		c-4.9,2.8-9.5,7.6-12.8,13.8c0.6-2.9,1.5-6,1.5-8.2c0.1-2.3-1.5-2.8-2.1-2.9c-1.3-0.4-2.9,0.3-4.5,2.5c-3.7,5.2-8.3,13.3-15.3,16.7
		c-5,2.5-7.3,0-7.4-3.8c1-0.3,1.9-0.6,2.6-1c9.2-4.1,12.3-10.2,10-13.9c-2.2-3.5-8.5-2.5-13.5,2.8c-2.5,2.6-4.3,7-4.6,11.1
		c-2.1,0.5-4.5,0.9-7.3,1.2c4.3-7,3.9-16.4-2.4-18c-7.3-1.8-11,5.2-12.5,11.1c0.5-5.9,1.4-13.1,2.8-19.7c0.6-2.8,2.5-7.6-3.6-8.5
		c-1.9-0.3-1.6,0.6-1.5,3.2c0.2,3.5-3.7,24.6-1.6,33.9c-2.6,0.8-3.7,2.8-0.3,4.9c2.3,1.4,7.4,1.9,12.5-0.6c1.8-0.9,3.4-2.2,4.8-3.7
		c3.1-0.4,6.3-0.9,9.2-1.5c0.5,4.1,3.2,7.2,9.3,6.6c8.8-0.8,16.6-11.6,19.5-16.8c-0.5,5.6-4.2,17.7,2,17.1c2.4-0.2,1.4-0.6,1.5-2.7
		c0.5-7.3,6.6-13.5,12.7-17.3c-1,9-0.7,17,3.4,19.5c7.5,4.7,18.1-7.6,23.9-15.2c-3,6.7-4.7,15.3-0.2,16.6c5.2,1.5,9.4-7.2,14.2-13.8
		c0.6,4.8,3.7,13,16.6,13c5.8,0,10.6-1.6,14.3-4.2h-5.7C230.3,60.9,227.9,61.7,225.3,61.7z M131.3,44c3.1-2.8,4.6-2.6,5-1.9
		c0.9,1.7-2.7,7.5-9.7,10.7C127.2,49.6,128.9,46.2,131.3,44z M101.7,61.6c-0.8,0.1-1.5,0.1-2.1,0c0.3-0.3,0.5-0.7,0.5-1.2
		c0-0.3,0-0.6,0-1c1.3-0.1,3.3-0.2,5.8-0.4C104.6,60.4,103.2,61.4,101.7,61.6z M107.8,56.5c-2.3,0.2-4.8,0.5-7.4,0.6
		c1-7.4,4.8-17.7,9.6-16.1C112.8,42,111.3,50.7,107.8,56.5z"/>
	<path fill="#FFFFFF" d="M80.7,95.7h-1.2l-0.2-3.2l0,0c-1.2,2.5-3.5,3.5-6,3.5c-5.5,0-8.2-4.3-8.2-9s2.7-9,8.2-9
		c3.6,0,6.6,2,7.2,5.7h-1.6c-0.2-2-2.3-4.3-5.6-4.3c-4.6,0-6.5,3.8-6.5,7.6s1.9,7.6,6.5,7.6c3.8,0,6.1-2.7,6-6.4h-5.9v-1.4h7.3V95.7
		z"/>
	<path fill="#FFFFFF" d="M96,89.4c0,3.6-2.1,6.6-5.9,6.6s-5.9-3-5.9-6.6s2.1-6.6,5.9-6.6S96,85.9,96,89.4 M85.7,89.4
		c0,2.7,1.5,5.3,4.4,5.3s4.4-2.7,4.4-5.3c0-2.7-1.5-5.3-4.4-5.3C87.1,84.1,85.7,86.8,85.7,89.4"/>
	<polygon fill="#FFFFFF" points="97.6,83.2 99.3,83.2 103.2,94.2 103.3,94.2 107.1,83.2 108.7,83.2 104,95.7 102.4,95.7 	"/>
	<path fill="#FFFFFF" d="M111.9,89.9c0,2.2,1.2,4.9,4.1,4.9c2.2,0,3.4-1.3,3.9-3.2h1.5c-0.7,2.8-2.3,4.5-5.5,4.5
		c-4,0-5.7-3.1-5.7-6.6c0-3.3,1.7-6.6,5.7-6.6s5.6,3.5,5.5,7L111.9,89.9L111.9,89.9z M120,88.6c-0.1-2.3-1.5-4.5-4-4.5
		s-3.9,2.2-4.1,4.5H120z"/>
	<path fill="#FFFFFF" d="M124.8,83.2h1.4v2.9l0,0c0.8-2,2.5-3.2,4.7-3.1v1.5c-2.8-0.1-4.7,1.9-4.7,4.5v6.7h-1.5V83.2H124.8z"/>
	<path fill="#FFFFFF" d="M133.7,83.2h1.5v2.2l0,0c0.6-1.5,2.2-2.5,4-2.5c3.5,0,4.6,1.8,4.6,4.8v8.1h-1.5V88c0-2.2-0.7-3.8-3.2-3.8
		c-2.4,0-3.9,1.8-3.9,4.3v7.3h-1.5V83.2z"/>
	<path fill="#FFFFFF" d="M147.8,83.2h1.4v2.1h0.1c0.8-1.5,2.1-2.5,4.1-2.5c1.6,0,3.1,0.8,3.6,2.5c0.8-1.7,2.3-2.5,4-2.5
		c2.7,0,4.1,1.4,4.1,4.4v8.5h-1.5v-8.4c0-2.1-0.8-3.2-3-3.2c-2.6,0-3.4,2.2-3.4,4.5v7.1h-1.5v-8.5c0-1.7-0.7-3.1-2.6-3.1
		c-2.6,0-3.7,2-3.7,4.6v7h-1.5L147.8,83.2L147.8,83.2z"/>
	<path fill="#FFFFFF" d="M170,89.9c0,2.2,1.2,4.9,4.1,4.9c2.2,0,3.4-1.3,3.9-3.2h1.5c-0.7,2.8-2.3,4.5-5.5,4.5c-4,0-5.7-3.1-5.7-6.6
		c0-3.3,1.7-6.6,5.7-6.6s5.6,3.5,5.5,7L170,89.9L170,89.9z M178.1,88.6c-0.1-2.3-1.5-4.5-4-4.5s-3.9,2.2-4.1,4.5H178.1z"/>
	<path fill="#FFFFFF" d="M183,83.2h1.5v2.2l0,0c0.6-1.5,2.2-2.5,4-2.5c3.5,0,4.6,1.8,4.6,4.8v8.1h-1.5V88c0-2.2-0.7-3.8-3.2-3.8
		c-2.4,0-3.9,1.8-3.9,4.3v7.3H183L183,83.2L183,83.2z"/>
	<path fill="#FFFFFF" d="M199.3,83.2h2.5v1.3h-2.5v8.4c0,1,0.1,1.6,1.2,1.6c0.4,0,0.9,0,1.3-0.1v1.3c-0.5,0-0.9,0-1.4,0
		c-2,0-2.7-0.7-2.7-2.8v-8.6h-2.2V83h2.2v-3.6h1.5v3.8H199.3z"/>
</g>
</svg>
